<?xml version="1.0" standalone="no"?><!DOCTYPE svg PUBLIC "-//W3C//DTD SVG 1.1//EN" "http://www.w3.org/Graphics/SVG/1.1/DTD/svg11.dtd"><svg t="1492603545737" class="icon" style="" viewBox="0 0 1024 1024" version="1.1" xmlns="http://www.w3.org/2000/svg" p-id="1159" xmlns:xlink="http://www.w3.org/1999/xlink" width="200" height="200"><defs><style type="text/css"></style></defs><path d="M689 596c30-47.2 47.6-103.2 47.6-163.4 0-168.2-136.2-304.6-304.2-304.6C264.2 128 128 264.4 128 432.6c0 168.2 136.2 304.6 304.2 304.6 61 0 117.8-18 165.4-48.8l13.8-9.6L828.6 896l67.4-68.6L679 610.2 689 596zM602.8 262.4c45.4 45.4 70.4 105.8 70.4 170 0 64.2-25 124.6-70.4 170-45.4 45.4-105.8 70.4-170 70.4-64.2 0-124.6-25-170-70.4-45.4-45.4-70.4-105.8-70.4-170 0-64.2 25-124.6 70.4-170 45.4-45.4 105.8-70.4 170-70.4C497 192 557.4 217 602.8 262.4z" p-id="1160" fill="#00ACEF"></path></svg>