<?xml version="1.0" standalone="no"?><!DOCTYPE svg PUBLIC "-//W3C//DTD SVG 1.1//EN" "http://www.w3.org/Graphics/SVG/1.1/DTD/svg11.dtd"><svg t="1492603711654" class="icon" style="" viewBox="0 0 1024 1024" version="1.1" xmlns="http://www.w3.org/2000/svg" p-id="9574" xmlns:xlink="http://www.w3.org/1999/xlink" width="200" height="200"><defs><style type="text/css"></style></defs><path d="M404.8 403.4 404.8 403.4 404.8 403.4z" p-id="9575" fill="#00ACEF"></path><path d="M726.6 727.8c-25.8-9.2-62.8-12.4-86.4-17.6-13.6-3-33.4-10.6-40-18.4-6.6-8-2.6-81.8-2.6-81.8s12.2-19.2 18.8-36 13.8-62.8 13.8-62.8 13.6 0 18.4-23.8c5.2-26 13.2-36.8 12.2-56.2-1-18-10.4-19-11.4-19l0 0c0 0 9.8-27.2 11.2-84.8C662.2 259.2 610 192 512 192s-150 67-148.6 135.2c1.2 57.4 11.2 84.8 11.2 84.8l0 0c-1 0-10.4 1-11.4 19-1 19.4 7.2 29.8 12.2 55.8 4.8 23.8 18.4 24 18.4 24s7.2 46.2 13.8 63c6.6 17 18.8 36 18.8 36s4 73.8-2.6 81.8c-6.6 8-26.4 15.4-40 18.4-23.8 5.2-60.6 8.6-86.4 17.8C271.6 737 192 768 192 832l320 0 320 0C832 768 752.4 737 726.6 727.8zM512 800 237.4 800c4-6 9.4-10.2 16.4-15.2 14-10.2 32.2-19.6 54.2-27.2 13.6-4.8 33.4-8 50.8-10.6 11.4-1.8 22.2-3.4 31.8-5.6 6.8-1.6 41.6-10 57.6-29.2 9-10.8 11.6-25.4 11.2-64.6-0.2-20-1.2-38.6-1.2-39.4l-0.4-8.4-4.6-7c-3-4.6-11.6-19-16-30.6-3.6-9.4-9.2-38.4-12-56.2 0 0 0.8 2-1-7.4-1.8-9.4-16.8-8.6-18.8-16-1.8-7.2-3.6-13.8-8.6-36.4-5-22.6 5.6-22.4 7.8-32.4 1.2-6.2 0-11.4 0-11.6l0 0c-0.6-2-8.2-26.8-9.4-75.4-0.6-26.4 9.2-51.2 27.6-69.8 21.2-21.6 52-33 89-33 38 0 68 11.4 89.2 33 18.4 18.6 28.2 43.4 27.6 69.8-1 48.4-8.6 73.2-9.4 75.4l0 0c0 0.2-1.2 3.4-0.8 10.4 0.4 10.8 13.6 11 8.6 33.6-5 22.6-6.8 29.2-8.6 36.4-1.8 7.2-17 6.6-18.8 16-1.8 9.4-1 7.4-1 7.4-2.8 17.8-8.4 46.8-12 56.2-4.6 11.6-13.2 26-16 30.6l-4.6 7-0.4 8.4c0 0.8-1 19.4-1.2 39.4-0.4 39.2 2.2 53.8 11.2 64.6 16 19 50.8 27.6 57.6 29.2 9.6 2.2 20.4 3.8 31.8 5.6 17.4 2.6 37.2 5.8 50.8 10.6 22 7.8 40.4 17.2 54.2 27.4 7 5 12.4 9.2 16.4 15.2L512 800 512 800z" p-id="9576" fill="#00ACEF"></path></svg>