<?xml version="1.0" standalone="no"?>
<!DOCTYPE svg PUBLIC "-//W3C//DTD SVG 1.1//EN" "http://www.w3.org/Graphics/SVG/1.1/DTD/svg11.dtd" >
<svg xmlns="http://www.w3.org/2000/svg">
<metadata>
Created by FontForge 20120731 at Tue Apr 25 16:53:45 2017
 By admin
</metadata>
<defs>
<font id="iconfont" horiz-adv-x="1024" >
  <font-face 
    font-family="iconfont"
    font-weight="500"
    font-stretch="normal"
    units-per-em="1024"
    panose-1="2 0 6 3 0 0 0 0 0 0"
    ascent="896"
    descent="-128"
    x-height="792"
    bbox="0 -212 1026.32 896"
    underline-thickness="0"
    underline-position="0"
    unicode-range="U+0078-E896"
  />
<missing-glyph 
 />
    <glyph glyph-name=".notdef" 
 />
    <glyph glyph-name=".notdef" 
 />
    <glyph glyph-name=".null" horiz-adv-x="0" 
 />
    <glyph glyph-name="nonmarkingreturn" horiz-adv-x="341" 
 />
    <glyph glyph-name="x" unicode="x" horiz-adv-x="1001" 
d="M281 543q-27 -1 -53 -1h-83q-18 0 -36.5 -6t-32.5 -18.5t-23 -32t-9 -45.5v-76h912v41q0 16 -0.5 30t-0.5 18q0 13 -5 29t-17 29.5t-31.5 22.5t-49.5 9h-133v-97h-438v97zM955 310v-52q0 -23 0.5 -52t0.5 -58t-10.5 -47.5t-26 -30t-33 -16t-31.5 -4.5q-14 -1 -29.5 -0.5
t-29.5 0.5h-32l-45 128h-439l-44 -128h-29h-34q-20 0 -45 1q-25 0 -41 9.5t-25.5 23t-13.5 29.5t-4 30v167h911zM163 247q-12 0 -21 -8.5t-9 -21.5t9 -21.5t21 -8.5q13 0 22 8.5t9 21.5t-9 21.5t-22 8.5zM316 123q-8 -26 -14 -48q-5 -19 -10.5 -37t-7.5 -25t-3 -15t1 -14.5
t9.5 -10.5t21.5 -4h37h67h81h80h64h36q23 0 34 12t2 38q-5 13 -9.5 30.5t-9.5 34.5q-5 19 -11 39h-368zM336 498v228q0 11 2.5 23t10 21.5t20.5 15.5t34 6h188q31 0 51.5 -14.5t20.5 -52.5v-227h-327z" />
    <glyph glyph-name="chongwu" unicode="&#xe67e;" 
d="M310 312q0 16 11 27t26.5 11t27 -11t11.5 -27t-11.5 -27t-27 -11t-26.5 11t-11 27zM612 312q0 16 11 27t27 11t27 -11t11 -27t-11 -27t-27 -11t-27 11t-11 27zM590 155q-25 -26 -67 -13q0 1 -1 1l1 28q14 3 23 12.5t9 21.5q0 25 -45 25t-45 -25q0 -12 9 -21.5t23 -12.5
v-30q-8 -3 -17 -4q-26 -2 -49 20q-9 9 -18 0t0 -18q28 -28 63 -28q4 0 8 1q15 1 28 8q1 -1 3 -2v0q17 -5 34 -5h2q34 1 57 24q9 9 0 18t-18 0zM857 519q-100 63 -164 70q-24 11 -56 19q-67 16 -147 16q-81 0 -144 -17q-36 -10 -61 -25q-54 -19 -117 -59q-64 -40 -88 -94
t-2 -94q13 -26 56 -36v-0.5v-0.5q-22 -94 38 -169q50 -62 144 -97q89 -33 191 -33q100 0 188 33q93 35 143 96q60 73 42 163q0 2 -1 4q51 4 68 36q21 40 -2.5 94t-87.5 94zM795 163q-41 -50 -119 -79.5t-169 -29.5q-93 0 -172.5 29.5t-119.5 79.5q-43 54 -28 123q1 4 3 10
q37 4 70 21t52 48q81 134 74 195q47 10 104 10q84 0 149 -19q0 -16 9 -38.5t18 -38.5t32.5 -52t33.5 -54q31 -49 90 -67q3 -11 4 -20q13 -65 -31 -118z" />
    <glyph glyph-name="gongneng" unicode="&#xe617;" 
d="M282 722q-84 0 -143.5 -59.5t-59.5 -143.5t59.5 -143.5t143.5 -59.5t143 59.5t59 143.5t-59 143.5t-143 59.5zM281.5 373q-60.5 0 -103 43t-42.5 103t42.5 103t103 43t103.5 -43t43 -103t-43 -103t-103.5 -43zM742 316q84 0 143.5 59.5t59.5 143.5t-59.5 143.5
t-143.5 59.5t-143 -59.5t-59 -143.5t59 -143.5t143 -59.5zM742.5 665q60.5 0 103 -43t42.5 -103t-42.5 -103t-103 -43t-103.5 43t-43 103t43 103t103.5 43zM282 260q-84 0 -143.5 -59.5t-59.5 -143.5t59.5 -143.5t143.5 -59.5t143 59.5t59 143.5t-59 143.5t-143 59.5z
M281.5 -89q-60.5 0 -103 43t-42.5 103t42.5 103t103 43t103.5 -43t43 -103t-43 -103t-103.5 -43zM540 57q0 -84 59 -143.5t143 -59.5t143.5 59.5t59.5 143.5t-59.5 143.5t-143.5 59.5t-143 -59.5t-59 -143.5z" />
    <glyph glyph-name="qiche" unicode="&#xe651;" 
d="M949 327q-2 36 -24 66.5t-56 45.5l-41 191q-11 53 -57 90t-99 37h-321q-53 0 -99 -37t-57 -90l-41 -191q-34 -15 -56 -45.5t-24 -66.5l-9 -123q-3 -39 17 -72t56 -47q8 -32 34 -52.5t60 -20.5q31 0 56 17.5t35 46.5h377q10 -29 35 -46.5t56 -17.5q34 0 60 20.5t35 52.5
q35 14 55 47t18 72zM855 132q-20 -4 -21 -25q-1 -17 -13.5 -29t-29.5 -12q-16 0 -28.5 11.5t-13.5 27.5q-1 11 -9 18t-18 7h-421q-10 0 -18 -7t-9 -18q-1 -16 -13.5 -27.5t-28.5 -11.5q-17 0 -29.5 12t-13.5 29q-1 21 -21 25q-23 6 -37 25t-12 43l9 123q2 24 18.5 43.5
t40.5 26.5q17 5 19 23v5l1 2l41 196q8 34 38.5 58.5t64.5 24.5h321q34 0 64.5 -24.5t38.5 -58.5l41 -196l1 -2v-5q2 -18 19 -23q24 -7 40.5 -26.5t18.5 -43.5l9 -123q2 -24 -12 -43t-37 -25zM301 413h421q16 0 24 10q9 11 7 26v2l-33 144q-4 17 -18.5 29.5t-31.5 12.5h-317
q-17 0 -31.5 -12.5t-18.5 -29.5l-33 -144v-2q-2 -15 6 -25q9 -11 25 -11zM357 582h309l27 -114h-363zM268 320q-26 0 -44 -18.5t-18 -44t18 -43.5t44 -18t44 18t18 43.5t-18 44t-44 18.5zM755.5 320q-25.5 0 -44 -18.5t-18.5 -44t18.5 -43.5t44 -18t43.5 18t18 43.5t-18 44
t-43.5 18.5z" />
    <glyph glyph-name="person" unicode="&#xe639;" 
d="M158 -157q0 -16 -11 -27t-27 -11q-15 0 -26.5 11t-11.5 27q0 94 68 159q37 36 86.5 56t89.5 23q14 2 23 10q5 5 7 13q-37 30 -66 104q-13 31 -17 35v0h-1v0v1q-34 31 -50 73q-21 55 3 97q-14 43 -14 92q-1 64 19 122l1 3q27 78 90 120q61 42 155 44q54 0 82 -5
q60 -11 85 -46q55 5 102 -51q24 -28 41.5 -65t21.5 -64q6 -37 0 -79q-4 -33 -14 -67q28 -43 6 -100q-16 -44 -50 -74l-1 -1v0v0q-4 -4 -17 -35q-28 -73 -64 -103q1 -7 7 -14q9 -8 23 -10q40 -3 89.5 -23t86.5 -56q68 -65 68 -159q0 -16 -11.5 -27t-26.5 -11q-16 0 -27 11
t-11 27q0 61 -44 104q-28 27 -64.5 41.5t-65.5 17.5q-42 4 -71 32q-11 11 -20.5 34t-9 48.5t18.5 36.5q28 17 52 79q19 49 36 64v-1v1q21 19 31 44q9 25 -3 38v0q-7 8 -9.5 21.5t1.5 23.5q12 38 15 68q4 33 0 58q-3 18 -15.5 44t-29.5 47q-23 27 -39 24q-20 -3 -38 5
q-17 8 -27 23l-2 3q-8 11 -38 17q-23 4 -66 3q-72 -1 -115 -31q-41 -27 -60 -82l-1 -3q-16 -48 -16 -96v0q1 -46 15 -80q7 -11 4 -24q-1 -6 -10 -23t-2 -36q10 -25 30 -44l1 -1v0q17 -16 36 -63q8 -20 13 -31t16 -26t23 -23q20 -10 20 -33q0 -55 -29 -85q-28 -28 -71 -32
q-29 -3 -65.5 -17.5t-63.5 -41.5q-45 -42 -45 -104v0z" />
    <glyph glyph-name="refresh" unicode="&#xe62f;" 
d="M533 -122h-21q-114 0 -211.5 56.5t-154 154t-56.5 211.5q0 140 83 252l85 -86l54 294l-293 -54l90 -90q-109 -139 -109 -316q0 -104 40.5 -199t109 -163.5t163.5 -109t199 -40.5q13 0 25 1q19 1 31.5 14.5t11.5 32.5q-1 18 -15 30.5t-32 11.5zM1024 300q0 104 -40.5 199
t-109 163.5t-163.5 109t-199 40.5q-31 0 -62 -4q-18 -2 -29.5 -16.5t-9.5 -33t17 -30t33 -9.5q26 3 51 3q114 0 211.5 -56.5t154 -154t56.5 -211.5q0 -167 -114 -289l-88 89l-54 -294l293 54l-87 88q68 72 104 162.5t36 189.5z" />
    <glyph glyph-name="35" unicode="&#xe623;" 
d="M510 -10v0q-17 0 -29 13l-409 495q-3 4 -5 8q-11 19 -1 37l123 216q11 19 32 19h578q22 0 33 -19l122 -214q0 -1 1 -2q7 -14 3 -29q-3 -9 -10 -15l-409 -496q-11 -13 -29 -13zM144 529l366 -443l366 443l-99 174h-534zM899 498h-778q-15 0 -26 11t-11 26.5t11 26.5t26 11
h778q16 0 27 -11t11 -26.5t-11 -26.5t-27 -11zM492 30q-12 0 -22 7.5t-14 19.5l-134 452q-4 15 3.5 28.5t22 18t28.5 -3t18 -22.5l134 -451q5 -15 -2.5 -29t-22.5 -18q-5 -2 -11 -2zM353 520q-6 0 -13 2q-14 5 -20.5 19t-1.5 29l65 176q5 14 19 20.5t28.5 1.5t21 -19
t1.5 -29l-64 -176q-9 -24 -36 -24zM528 30q-5 0 -10 2q-15 4 -22.5 18t-3.5 29l134 451q5 15 18.5 22.5t28.5 3t22.5 -18t2.5 -28.5l-134 -452q-3 -12 -13.5 -19.5t-22.5 -7.5zM667 520q-26 0 -35 24l-64 176q-6 15 0.5 29t21.5 19t29 -1.5t19 -20.5l64 -176q6 -15 -0.5 -29
t-21.5 -19q-6 -2 -13 -2z" />
    <glyph glyph-name="yonghu" unicode="&#xe62b;" 
d="M405 493v0v0zM727 168q-16 6 -50 11.5t-37 6.5q-30 6 -40 18q-3 4 -3.5 24.5t0.5 38.5l1 19q12 19 18 36q3 7 6.5 23t5.5 28l2 12q2 0 4.5 0.5t7 6.5t7.5 17q1 7 6.5 26t5.5 30q-1 19 -12 19v0q10 27 12 85q1 54 -39 94.5t-110 40.5t-110 -40t-39 -95q1 -26 4 -47t5 -30
l3 -8v0q-11 0 -12 -19q0 -11 5.5 -29t6.5 -27q3 -10 7.5 -16t7.5 -7l4 -1q7 -46 14 -63q3 -7 7.5 -16l7.5 -15l3 -5q4 -74 -2 -82q-10 -11 -40 -18q-2 0 -36.5 -6t-50.5 -12q-105 -37 -105 -104h640q0 67 -105 104zM512 96h-275q5 7 17 15q22 16 54 27q15 6 51 11q23 4 32 6
q41 9 57 29q12 14 11 64v12v10.5t-0.5 8.5t-0.5 6.5v2.5v8l-5 7q-10 16 -16 31q-5 14 -12 56v0l-1 7q-1 5 -9.5 9t-9.5 7q-4 19 -8 37q-2 12 -1 16t4.5 8.5t4.5 7.5v12v0q-9 27 -10 75q-1 41 28 70q32 33 89 33t89 -33q29 -29 28 -70q-1 -52 -10 -75v0v0q-1 -5 -1 -11
q1 -2 6.5 -11t2.5 -22q-4 -18 -9 -37q0 -3 -8.5 -7t-9.5 -9l-1 -7v0q-7 -42 -12 -56q-5 -13 -16 -31l-5 -7v-8l-0.5 -2.5t-0.5 -6.5v-8.5t-0.5 -10.5t-0.5 -12q0 -50 12 -64q16 -20 57 -29q8 -2 32 -6q36 -5 51 -11q33 -11 54 -27q12 -9 16 -15h-274z" />
    <glyph glyph-name="jiaju" unicode="&#xe671;" 
d="M339 -30h-117v98h50v-48h39l48 74l42 -27zM803 -30h-117l-60 94l43 27l44 -71h40v48h50v-98zM173 221q-45 0 -77 32t-32 77t32 77t77 32t77 -32t32 -77t-32 -77t-77 -32zM173.5 390q-24.5 0 -42 -17.5t-17.5 -42t17.5 -42t42 -17.5t41.5 17.5t17 42t-17 42t-41.5 17.5z
M851 221q-45 0 -77 32t-32 77t32 77t77 32t77 -32t32 -77t-32 -77t-77 -32zM851.5 390q-24.5 0 -42 -17.5t-17.5 -42t17.5 -42t42 -17.5t42 17.5t17.5 42t-17.5 42t-42 17.5zM834 403h-50v210q0 25 -18.5 43.5t-43.5 18.5h-419q-26 0 -44.5 -18.5t-18.5 -43.5v-210h-49v210
q0 46 33 79t79 33h419q46 0 79 -33t33 -79v-210zM875 56h-725q-11 0 -18 7t-7 18v154q0 10 7 17.5t18 7.5h725q10 0 17.5 -7.5t7.5 -17.5v-154q0 -11 -7.5 -18t-17.5 -7zM175 106h675v104h-675v-104zM592 531h53v-53h-53v53zM379 531h53v-53h-53v53z" />
    <glyph glyph-name="diqiu" unicode="&#xe896;" 
d="M512 828q-90 0 -172.5 -35.5t-141.5 -94.5t-94.5 -141.5t-35.5 -172.5t35.5 -172.5t94.5 -141.5t141.5 -94.5t172.5 -35.5t172.5 35.5t141.5 94.5t94.5 141.5t35.5 172.5t-35.5 172.5t-94.5 141.5t-141.5 94.5t-172.5 35.5zM418 747q-62 -61 -99.5 -146t-43.5 -183h-137
q11 119 88.5 209.5t191.5 119.5zM138 350h137q6 -98 43.5 -183t99.5 -146q-114 29 -191.5 119.5t-88.5 209.5zM478 58q-58 52 -93 127.5t-42 164.5h135v-292zM478 418h-135q7 89 42 164.5t93 127.5v-292zM886 418h-137q-6 98 -43.5 183t-99.5 146q114 -29 191.5 -119.5
t88.5 -209.5zM546 710q58 -52 93 -127.5t42 -164.5h-135v292zM546 350h135q-7 -89 -42 -164.5t-93 -127.5v292zM606 21q62 61 99.5 146t43.5 183h137q-11 -119 -88.5 -209.5t-191.5 -119.5z" />
    <glyph glyph-name="yanjing-copy" unicode="&#xe673;" 
d="M753 224q-1 1 -6.5 0t-16.5 1t-23.5 4t-27.5 10t-28.5 18.5t-26 29t-19.5 41.5q-10 24 -5.5 42t12.5 31t23.5 21t29 13t28.5 7.5t21.5 3t8.5 0.5q6 0 17 0.5t39 -2t49.5 -8.5t39 -22.5t17.5 -40.5q0 -68 -33.5 -108.5t-98.5 -40.5zM409 328q-10 -32 -29 -54.5t-39 -32
t-38.5 -14t-30.5 -4.5h-12q-65 0 -98.5 41t-33.5 108q0 73 164 73q2 0 5.5 -0.5t14 -1.5t19.5 -3.5t22.5 -6.5t22.5 -10t19.5 -14.5t14 -20t5.5 -27t-6 -33.5zM961 469q0 4 -4 5q-5 2 -6 2q-56 9 -86 11l-69 3q-71 4 -132 -4q-45 -6 -79 -17q-6 -2 -19 -6.5t-20 -7.5
q-34 -11 -62 -5q-16 3 -38 10q-44 15 -68 19q-67 13 -132 12q-56 0 -96 -5q-27 -3 -76 -10l-16 -4q-5 -1 -5 -6q-1 -40 -1 -45q0 -2 1 -7q0 -3 3 -4q4 -2 5 -3q10 -7 16 -24q1 -3 2 -6.5t2 -7.5t1 -7q1 -1 2.5 -5.5t1.5 -6.5q2 -8 6.5 -28.5t6.5 -31.5q7 -32 19 -55
q15 -30 44 -42q17 -7 38 -11q32 -5 69 -2q39 3 70 12q29 9 47 25q35 30 52 63q20 38 28 63q5 19 7 23q6 17 23 19q6 1 11 1q16 -1 23 -10q4 -5 6 -10q6 -13 9 -22q10 -33 37 -80q20 -35 60 -58q25 -13 56 -19q40 -8 88 -6q30 1 53 8q29 9 45 29q10 13 17 32q11 28 22 75
q4 18 8 37l5 19q4 12 7 17q7 10 14 12q4 2 4.5 6t0.5 6v27q0 4 -0.5 11t-0.5 9z" />
    <glyph glyph-name="password" unicode="&#xe6f2;" 
d="M481 193v-79q0 -13 9 -22t22 -9t22 9t9 22v79q19 9 30.5 26.5t11.5 38.5q0 30 -21.5 51t-51.5 21t-51.5 -21t-21.5 -51q0 -21 11.5 -38.5t30.5 -26.5zM853 494h-560q3 7 3 14v43q0 88 63.5 150.5t152.5 62.5t152.5 -62.5t63.5 -150.5q0 -17 12 -29t29 -12t29 12t12 29
q0 122 -87.5 208.5t-210.5 86.5t-210.5 -86.5t-87.5 -208.5v-43q0 -7 2 -14h-45q-26 0 -44 -17.5t-18 -42.5v-452q0 -25 18 -42.5t44 -17.5h682q25 0 43.5 17.5t18.5 42.5v452q0 25 -18.5 42.5t-43.5 17.5zM832 4h-640v408h640v-408z" />
    <glyph glyph-name="tianjia" unicode="&#xe7c4;" 
d="M512 800q-172 0 -294 -122t-122 -294t122 -294t294 -122t294 122t122 294t-122 294t-294 122zM512 3q-103 0 -191 51t-139 139t-51 191t51 191t139 139t191 51t191 -51t139 -139t51 -191t-51 -191t-139 -139t-191 -51zM528 640h-33v-240h-239v-33h239v-239h33v239h240v33
h-240v240z" />
    <glyph glyph-name="huiyishi" unicode="&#xe603;" 
d="M13 708.5q0 -34.5 24 -59t58.5 -24.5t58.5 24.5t24 59t-24 59t-58.5 24.5t-58.5 -24.5t-24 -59zM322 185l-144 69v304q0 14 -10 24t-24 10h-97q-14 0 -24 -10t-10 -24v-314q0 -12 6.5 -21t17.5 -12l217 -89v-195q0 -15 10 -25t24 -10h21q14 0 24 10t10 25v225
q0 24 -21 33zM846 709q0 -35 24 -59.5t58.5 -24.5t58.5 24.5t24 59t-24 59t-58.5 24.5t-58.5 -24.5t-24 -58.5v0zM977 592h-97q-14 0 -24 -10t-10 -24v-304l-144 -69q-21 -9 -21 -33v-225q0 -15 10 -25t24 -10h21q14 0 24 10t10 25v195l217 89q11 3 17.5 12t6.5 21v314
q0 14 -10 24t-24 10zM461 289h-20q-14 0 -24.5 -10t-10.5 -24v-237q0 -14 10.5 -24.5t24.5 -10.5h20q14 0 24.5 10.5t10.5 24.5v237q0 14 -10.5 24t-24.5 10zM583 289h-20q-15 0 -25 -10t-10 -24v-237q0 -14 10 -24.5t25 -10.5h20q14 0 24 10.5t10 24.5v237q0 14 -10 24
t-24 10zM429 792.5q0 -34.5 24.5 -59t58.5 -24.5t58.5 24.5t24.5 59t-24.5 59t-58.5 24.5t-58.5 -24.5t-24.5 -59zM262 334h500q13 0 21.5 9t8.5 21.5t-8.5 21.5t-21.5 9h-137v240q0 14 -10 24.5t-24 10.5h-158q-14 0 -24 -10.5t-10 -24.5v-240h-137q-13 0 -21.5 -9
t-8.5 -21.5t8.5 -21.5t21.5 -9z" />
    <glyph glyph-name="law" unicode="&#xe60c;" 
d="M931 89v-62h31v-93h-900v93h31v62h62v311h-31v62h-31v62h-31v62l450 248l450 -248v-62h-31v-62h-31v-62h-31v-311h62zM93 -35h838v31h-838v-31zM155 431h93v31h-93v-31zM186 400v-311h31v311h-31zM931 567l-419 232l-419 -232v-12h838v12zM900 493v31h-776v-31h776z
M403 431v31h-93v-31h93zM341 400v-311h31v311h-31zM310 400h-62v-311h62v311zM559 431v31h-94v-31h94zM496 400v-311h32v311h-32zM465 400h-62v-311h62v311zM714 431v31h-93v-31h93zM652 400v-311h31v311h-31zM621 400h-62v-311h62v311zM869 431v31h-93v-31h93zM807 400
v-311h31v311h-31zM776 400h-62v-311h62v311zM776 58h-652v-31h776v31h-124z" />
    <glyph glyph-name="mobilephoneverification" unicode="&#xe65f;" 
d="M299 -62q-26 0 -43.5 18t-17.5 44v512h-10v66h10v3h-10v65h10v121q0 26 17.5 44t43.5 18h424q25 0 43 -18t18 -44v-767q0 -26 -18 -44t-43 -18h-424v0zM299 791q-10 0 -17 -7t-7 -17v-767q0 -10 7 -17t17 -7h424q10 0 17 7t7 17v767q0 10 -7 17t-17 7h-424zM256 522v46
h-8v-46h8zM256 591v45h-8v-45h8zM513 0q-22 0 -37.5 15.5t-15.5 37.5t15.5 37.5t37.5 15.5t37.5 -15.5t15.5 -37.5t-15.5 -37.5t-37.5 -15.5zM513 83q-12 0 -20.5 -9t-8.5 -21t8.5 -20.5t20.5 -8.5t21 8.5t9 20.5t-9 21t-21 9zM420 704v38h175v-38h-175z" />
    <glyph glyph-name="search" unicode="&#xe7df;" 
d="M897 47l-227 226q67 84 67 191q0 126 -89.5 215t-215 89t-214.5 -89t-89 -215t89 -215.5t215 -89.5q107 0 191 68l226 -227zM240 271q-79 79 -79 192t79.5 193t192 80t192.5 -80q80 -79 80 -192t-80 -193t-192 -80q-113 0 -193 80z" />
    <glyph glyph-name="lianyiqun" unicode="&#xe635;" 
d="M987 -20v2q-4 82 -149 296q-69 100 -131 180l76 200q4 10 -1 22q-4 8 -11.5 28.5t-15.5 67.5t-2 86q2 14 -7 24q-8 10 -22 10h-114q-11 0 -19.5 -7.5t-9.5 -18.5v-3q0 -36 -20 -61t-48.5 -25t-48.5 25t-20 61q0 12 -8.5 20.5t-20.5 8.5h-114q-13 0 -22 -10l-1 -1l-1 -1
q-6 -10 -5 -22q3 -19 3 -37.5t-2.5 -37t-6 -34t-7.5 -29t-7.5 -23t-5.5 -15.5l-2 -6q-6 -11 -1 -22l75 -200q-74 -97 -131 -181q-145 -212 -149 -296v-1q-1 -36 26 -64q42 -44 113 -44q26 0 48 11t32.5 21t26.5 29q18 22 30 30.5t31 8.5t31 -8.5t30 -30.5q15 -19 25.5 -29
t33 -21t48.5 -11q25 0 47.5 11t32.5 21t26 29q19 22 31 30.5t30.5 8.5t30.5 -8.5t31 -30.5q15 -19 25.5 -29t32.5 -21t48 -11q71 0 113 44q26 29 26 64zM333 837h55v0v-2.5v-1.5v-1q1 -1 1 -2.5t1 -1.5v-1v-2t1 -2v0q0 -1 0.5 -2.5t0.5 -2.5l1 -1v-1.5t1 -1.5v-1
q0 -1 0.5 -2t1.5 -2v-1q1 -3 1 -4h1q0 -1 1 -2.5l1 -1.5v-1q2 -2 2 -3t0.5 -1t0.5 -1l2 -4v0q1 -3 2 -3q0 -1 0.5 -1h0.5q0 -1 1 -2t1 -2t1 -1q1 -2 2 -2q0 -1 0.5 -1t0.5 -1l1 -1.5l1 -1.5v-1q1 -1 2 -3l0.5 -0.5l0.5 -0.5q1 -1 1.5 -2t1.5 -1q33 -39 79 -44h13q54 0 91 44
q26 30 33 71h55q-3 -82 32 -170l-71 -187h-282l-71 187q35 88 32 170zM918 -43q-25 -26 -71 -26q-19 0 -31 9t-30 31q-15 18 -25.5 28.5t-33 21t-48.5 10.5q-25 0 -47.5 -10.5t-32.5 -20.5t-26 -29q-19 -22 -31 -31t-30.5 -9t-30.5 9t-31 31q-14 18 -24.5 28.5t-32.5 21
t-48 10.5t-48.5 -10.5t-32.5 -20.5t-26 -29q-18 -22 -30 -31t-31 -9q-46 0 -71 26q-10 10 -10 22q4 67 138 265q52 75 130 178h296q68 -87 129 -178q135 -198 138 -265q2 -11 -9 -22zM435 311q-17 8 -25 -11q-57 -125 -62 -154q-5 -24 13 -28h2h2q14 0 17 19q7 30 58 143
q11 24 -5 31zM615 300q-8 20 -25 11q-17 -7 -5 -31q52 -114 57 -143q4 -18 18 -18h4q18 3 13 28q-8 40 -62 153z" />
    <glyph glyph-name="mianbao" unicode="&#xe687;" 
d="M74 -61q0 -13 9 -21.5t21 -8.5h371v0q12 0 21 8.5t9 21.5v153q142 -135 221 -167q40 -16 82 -16h1v0q37 0 81.5 18.5t70.5 44.5t44.5 70.5t18.5 81.5v0v1q0 42 -16 81q-31 78 -144 218t-245.5 264t-209.5 155q-40 16 -82 16v0h-1q-42 0 -81.5 -16.5t-70 -46.5t-47 -69.5
t-16.5 -82.5t17 -82q19 -48 74 -126q-85 -8 -138 -30q-19 -8 -34 -23q-12 -12 -21 -33.5t-9 -39.5t9 -39.5t21 -34.5q19 -18 44 -26v-271v0zM183 584q-12 29 -12 60t12 59q16 40 58 68.5t86 28.5q31 0 60 -12q49 -20 134 -93l-67 -67q-8 -9 -8 -21t8.5 -20.5t21.5 -8.5
q11 0 20 8l70 69q55 -51 107 -105l-71 -71q-7 -8 -7 -20t8.5 -21t20.5 -9t20 8l69 69q51 -55 99 -114l-61 -61q-8 -9 -8 -20q0 -13 8.5 -21.5t21.5 -8.5q11 0 20 8l56 56q81 -104 104 -161q12 -29 12 -60v0q0 -27 -13.5 -59t-32.5 -51t-51 -32.5t-59 -13.5v0v0q-32 0 -60 12
q-82 33 -244 195v35q30 9 52 38.5t22 61.5q0 28 -19 56.5t-45 39.5q-83 34 -226 34h-16q-70 93 -90 144zM72 278q-13 13 -13 32v0q0 9 4 17q7 17 24 24q61 25 172 29v0q16 1 30 1q131 0 203 -30q17 -7 24 -24q3 -8 3 -17t-3 -17q-7 -17 -24 -24q-8 -4 -17 -4v0
q-12 0 -21 -8.5t-9 -20.5v-268h-311v268q0 12 -9 20.5t-21 8.5v0q-19 0 -32 13z" />
    <glyph glyph-name="leqi" unicode="&#xe600;" horiz-adv-x="1026" 
d="M977 410q-21 27 -51 48.5t-58.5 33t-52.5 19t-41.5 10.5t-18.5 4q-17 0 -21 13q-66 152 -171 170q-53 11 -101 -11t-74 -48l-55 46v22q0 41 -34 68l-86 77q-25 26 -66 22.5t-66 -35.5l-55 -60q-27 -28 -25 -69.5t33 -66.5l85 -77q26 -26 64 -26h5q13 0 17 5l47 -43
q-66 -99 -43 -179q27 -101 154 -145q5 -2 8.5 -7.5t3.5 -9.5v-5q0 -6 1 -15t5.5 -34.5t13.5 -49t28 -53.5t44.5 -53t67 -42t92.5 -26h43q38 0 47 5q4 0 10.5 2t10.5 2q23 3 37 6.5t43 18.5t65 43q59 44 94.5 117.5t46.5 147.5q13 94 -47 175zM559 435q32 0 54.5 -22.5
t22.5 -54.5t-22.5 -54t-54.5 -22t-54.5 22t-22.5 54t22.5 54.5t54.5 22.5zM435 414l-179 171l51 55l175 -171q-35 -21 -47 -55zM158 619l-85 76q-13 10 -14 26t9 26l56 64q13 12 30 12q8 0 25 -8l86 -77q12 -13 12 -25q0 -18 -8 -26l-60 -64q-6 -13 -26 -13q-17 0 -25 9z
M960 230q-10 -70 -40.5 -130.5t-74.5 -95.5q-30 -22 -53.5 -34t-34 -15t-27.5 -6q-5 0 -13.5 -2t-12.5 -2q-6 -4 -32.5 -4t-35.5 4q-40 5 -73 19.5t-53 32.5t-35.5 41t-22.5 42t-11 38.5t-5 27.5t-1 12q0 21 -10.5 43t-36.5 34q-51 19 -82 46.5t-37 59.5q-13 49 30 124
l128 -124q6 -52 44.5 -87.5t91.5 -35.5q58 0 97.5 39.5t39.5 97t-39.5 97t-97.5 39.5h-13l-115 111q65 51 124 42q71 -13 124 -132q11 -25 32.5 -36t39.5 -11q5 0 13.5 -1.5t32.5 -8t45 -15.5t46.5 -26t41.5 -39q39 -63 26 -145zM768 260l-111 -111q-10 -9 -10 -21t10 -21
q9 -9 21.5 -9t21.5 9l111 111q9 9 9 21t-9 21q-7 10 -20 10t-23 -10z" />
    <glyph glyph-name="logo" unicode="&#xe601;" 
d="M783 718l5 3v-13l-28 -34q-5 7 -8 15zM756 405q-26 21 -52 19q-40 -3 -74.5 -28.5t-72.5 -65.5q-21 -23 -45 -59q3 8 9 20.5t27.5 45.5t46.5 58.5t66 48t87 24.5q0 1 4 -0.5t9 6.5t5 24l-76 -20q-37 -11 -71 -36.5t-55 -53t-36.5 -55t-22.5 -43.5t-7 -18
q-13 -39 -48 -103q-19 -35 -35 -50q-19 -19 -48.5 -31.5t-62.5 -11.5t-53.5 22t-29.5 48t-1.5 56.5t33.5 51.5q30 26 60.5 27.5t57.5 -27.5q21 -29 7 -58.5t-47 -45.5q-19 -9 -34 0q-19 12 -11 40q3 15 15 15q11 -2 11 -15q0 -5 4.5 -8.5t9.5 -1.5q15 6 22 18t0 28
q-14 24 -43 22q-23 -2 -40 -21t-16 -41q0 -42 25 -62t59 -13.5t61 34.5q33 34 63.5 113.5t43.5 101.5q48 82 119 125q16 9 46.5 18t55 20t38.5 30q9 9 18 29q1 4 1.5 11.5t1.5 11.5l-20 -12l-9 16q0 4 5 11.5t10.5 14.5t11.5 14t7 8v5l-3 6q-2 5 -4.5 5.5t-4.5 -0.5l-2 -2
l-13 -7l-13 21l-8 -7l-3 7l32 34l3 14q-5 4 -10.5 4t-8.5 -2l-3 -2q3 7 5.5 11.5t4.5 5.5l1 1q4 23 -4 31l-257 -248q-34 23 -37 25q-49 27 -78 30q-49 6 -85 -39t-22 -93q2 -6 24 -45q18 -31 26 -38q0 -1 -80 -81q-87 -84 -62 -155q14 -41 45 -70t72 -34q22 -3 44 4.5
t42.5 24.5t33.5 30.5t31 34.5l133 -183l8 5l4 309h311l4 5zM760 789q4 -2 4.5 -13t-1.5 -20l-2 -9l10 -3q0 7 4 14t7 11l4 4l-1 5l1 4q-2 20 -9 25q-2 -3 -17 -18z" />
  </font>
</defs>
</svg>
